<?xml version="1.0" standalone="no"?>
<svg viewBox="0 0 200 200" xmlns="http://www.w3.org/2000/svg">
  <path fill="#735DFE" d="M43.9,-74.8C58.3,-67.7,72.4,-58.8,79.9,-46.1C87.4,-33.3,88.3,-16.7,88.2,-0.1C88,16.5,86.8,33,79.7,46.4C72.6,59.7,59.5,70,45.2,78.3C30.9,86.6,15.5,92.9,0.3,92.4C-14.9,91.9,-29.8,84.7,-43.1,75.9C-56.4,67,-68.1,56.6,-75.4,43.6C-82.7,30.7,-85.5,15.4,-86.5,-0.6C-87.5,-16.5,-86.7,-33.1,-79.9,-46.8C-73.1,-60.5,-60.4,-71.5,-46,-78.7C-31.7,-86,-15.9,-89.5,-0.6,-88.5C14.7,-87.5,29.5,-82,43.9,-74.8Z" transform="translate(100 100)" />
</svg>
